<?xml version="1.0" standalone="no"?><svg xmlns="http://www.w3.org/2000/svg" viewBox="0 0 1440 320"><path fill="#0099ff" fill-opacity="0.99" d="M0,256L40,234.7C80,213,160,171,240,170.7C320,171,400,213,480,202.7C560,192,640,128,720,85.3C800,43,880,21,960,21.3C1040,21,1120,43,1200,69.3C1280,96,1360,128,1400,144L1440,160L1440,320L1400,320C1360,320,1280,320,1200,320C1120,320,1040,320,960,320C880,320,800,320,720,320C640,320,560,320,480,320C400,320,320,320,240,320C160,320,80,320,40,320L0,320Z"></path></svg>